<?xml version="1.0" encoding="UTF-8" standalone="no"?>
<!DOCTYPE svg PUBLIC "-//W3C//DTD SVG 1.1//EN" "http://www.w3.org/Graphics/SVG/1.1/DTD/svg11.dtd">
<svg width="100%" height="100%" viewBox="0 0 772 772" version="1.1" xmlns="http://www.w3.org/2000/svg" xmlns:xlink="http://www.w3.org/1999/xlink" xml:space="preserve" xmlns:serif="http://www.serif.com/" style="fill-rule:evenodd;clip-rule:evenodd;stroke-linejoin:round;stroke-miterlimit:2;">
    <g transform="matrix(0.5,-6.12323e-17,6.12323e-17,-1,1.13687e-13,772)">
        <rect x="0" y="0" width="1544" height="772" style="fill:url(#_Radial1);"/>
    </g>
    <g transform="matrix(1.48039,-0.231422,0.218176,1.39565,-329.03,260.931)">
        <g transform="matrix(9.21715,0,0,8.0623,327.775,206.025)">
            <path d="M21,3C21.552,3 22,3.448 22,4L22,20C22,20.552 21.552,21 21,21L3,21C2.448,21 2,20.552 2,20L2,4C2,3.448 2.448,3 3,3L21,3ZM20,5L4,5L4,19L20,19L20,5ZM18,7L18,9L6,9L6,7L18,7Z" style="fill:rgb(255,148,20);fill-rule:nonzero;"/>
        </g>
        <g transform="matrix(3.39101,-0.639445,0.724436,3.84172,383.387,277.764)">
            <path d="M15.387,13.498L17.94,20.512L13.242,22.222L10.689,15.208L6.79,17.653L8.409,1.633L19.946,12.865L15.387,13.498ZM15.377,19.316L12.662,11.857L15.621,11.446L9.982,5.956L9.191,13.786L11.722,12.199L14.437,19.658L15.377,19.316Z" style="fill:white;fill-rule:nonzero;"/>
        </g>
    </g>
    <g transform="matrix(1,0,0,1,-339.952,-123.475)">
        <path d="M447.265,318L463.265,223.75L487.515,223.75L506.39,274L525.14,223.75L549.39,223.75L565.39,318L541.015,318L532.89,263.75L510.64,318L500.89,318L479.765,263.75L471.64,318L447.265,318Z" style="fill:rgb(255,148,20);fill-rule:nonzero;"/>
        <path d="M601.39,253.875L601.39,290C601.39,297.917 605.223,301.875 612.89,301.875C620.557,301.875 624.39,297.917 624.39,290L624.39,253.875L647.015,253.875L647.015,294.375C647.015,303.042 644.161,309.542 638.453,313.875C632.744,318.208 624.223,320.375 612.89,320.375C601.557,320.375 593.036,318.208 587.328,313.875C581.619,309.542 578.765,303.042 578.765,294.375L578.765,253.875L601.39,253.875Z" style="fill:rgb(255,148,20);fill-rule:nonzero;"/>
        <rect x="662.39" y="214.25" width="22.625" height="103.75" style="fill:rgb(255,148,20);fill-rule:nonzero;"/>
        <path d="M725.765,272.75L725.765,318L703.14,318L703.14,272.75L695.64,272.75L695.64,253.875L703.14,253.875L703.14,234.625L725.765,234.625L725.765,253.875L738.64,253.875L738.64,272.75L725.765,272.75Z" style="fill:rgb(255,148,20);fill-rule:nonzero;"/>
        <path d="M771.515,253.875L771.515,318L748.89,318L748.89,253.875L771.515,253.875ZM747.39,229.25C747.39,227.5 747.723,225.854 748.39,224.312C749.057,222.771 749.973,221.417 751.14,220.25C752.307,219.083 753.661,218.167 755.203,217.5C756.744,216.833 758.39,216.5 760.14,216.5C761.89,216.5 763.536,216.833 765.078,217.5C766.619,218.167 767.973,219.083 769.14,220.25C770.307,221.417 771.223,222.771 771.89,224.312C772.557,225.854 772.89,227.5 772.89,229.25C772.89,231 772.557,232.646 771.89,234.187C771.223,235.729 770.307,237.083 769.14,238.25C767.973,239.417 766.619,240.333 765.078,241C763.536,241.667 761.89,242 760.14,242C758.39,242 756.744,241.667 755.203,241C753.661,240.333 752.307,239.417 751.14,238.25C749.973,237.083 749.057,235.729 748.39,234.187C747.723,232.646 747.39,231 747.39,229.25Z" style="fill:rgb(255,148,20);fill-rule:nonzero;"/>
        <path d="M829.515,270.375C825.348,268.208 821.265,267.125 817.265,267.125C815.182,267.125 813.494,267.542 812.203,268.375C810.911,269.208 810.265,270.333 810.265,271.75C810.265,272.5 810.369,273.104 810.578,273.562C810.786,274.021 811.244,274.458 811.953,274.875C812.661,275.292 813.703,275.667 815.078,276C816.453,276.333 818.265,276.75 820.515,277.25C826.765,278.5 831.432,280.729 834.515,283.937C837.598,287.146 839.14,291.25 839.14,296.25C839.14,300 838.39,303.375 836.89,306.375C835.39,309.375 833.307,311.896 830.64,313.937C827.973,315.979 824.765,317.562 821.015,318.687C817.265,319.812 813.14,320.375 808.64,320.375C799.973,320.375 791.432,317.917 783.015,313L791.265,297C797.598,301.333 803.598,303.5 809.265,303.5C811.348,303.5 813.057,303.042 814.39,302.125C815.723,301.208 816.39,300.042 816.39,298.625C816.39,297.792 816.286,297.104 816.078,296.562C815.869,296.021 815.432,295.521 814.765,295.062C814.098,294.604 813.119,294.187 811.828,293.812C810.536,293.437 808.848,293.042 806.765,292.625C799.765,291.208 794.869,289.104 792.078,286.312C789.286,283.521 787.89,279.667 787.89,274.75C787.89,271.167 788.557,267.937 789.89,265.062C791.223,262.187 793.14,259.75 795.64,257.75C798.14,255.75 801.161,254.208 804.703,253.125C808.244,252.042 812.182,251.5 816.515,251.5C823.598,251.5 830.473,252.875 837.14,255.625L829.515,270.375Z" style="fill:rgb(255,148,20);fill-rule:nonzero;"/>
        <path d="M873.265,253.875L873.265,318L850.64,318L850.64,253.875L873.265,253.875ZM849.14,229.25C849.14,227.5 849.473,225.854 850.14,224.312C850.807,222.771 851.723,221.417 852.89,220.25C854.057,219.083 855.411,218.167 856.953,217.5C858.494,216.833 860.14,216.5 861.89,216.5C863.64,216.5 865.286,216.833 866.828,217.5C868.369,218.167 869.723,219.083 870.89,220.25C872.057,221.417 872.973,222.771 873.64,224.312C874.307,225.854 874.64,227.5 874.64,229.25C874.64,231 874.307,232.646 873.64,234.187C872.973,235.729 872.057,237.083 870.89,238.25C869.723,239.417 868.369,240.333 866.828,241C865.286,241.667 863.64,242 861.89,242C860.14,242 858.494,241.667 856.953,241C855.411,240.333 854.057,239.417 852.89,238.25C851.723,237.083 850.807,235.729 850.14,234.187C849.473,232.646 849.14,231 849.14,229.25Z" style="fill:rgb(255,148,20);fill-rule:nonzero;"/>
        <path d="M914.015,272.75L914.015,318L891.39,318L891.39,272.75L883.89,272.75L883.89,253.875L891.39,253.875L891.39,234.625L914.015,234.625L914.015,253.875L926.89,253.875L926.89,272.75L914.015,272.75Z" style="fill:rgb(255,148,20);fill-rule:nonzero;"/>
        <path d="M983.515,276.625C982.765,273.458 981.223,270.917 978.89,269C976.557,267.083 973.723,266.125 970.39,266.125C966.89,266.125 964.036,267.042 961.828,268.875C959.619,270.708 958.223,273.292 957.64,276.625L983.515,276.625ZM957.015,289.75C957.015,299.5 961.598,304.375 970.765,304.375C975.682,304.375 979.39,302.375 981.89,298.375L1003.76,298.375C999.348,313.042 988.307,320.375 970.64,320.375C965.223,320.375 960.265,319.562 955.765,317.937C951.265,316.312 947.411,314 944.203,311C940.994,308 938.515,304.417 936.765,300.25C935.015,296.083 934.14,291.417 934.14,286.25C934.14,280.917 934.973,276.104 936.64,271.812C938.307,267.521 940.682,263.875 943.765,260.875C946.848,257.875 950.578,255.562 954.953,253.937C959.328,252.312 964.265,251.5 969.765,251.5C975.182,251.5 980.057,252.312 984.39,253.937C988.723,255.562 992.39,257.917 995.39,261C998.39,264.083 1000.68,267.854 1002.26,272.312C1003.85,276.771 1004.64,281.792 1004.64,287.375L1004.64,289.75L957.015,289.75Z" style="fill:rgb(255,148,20);fill-rule:nonzero;"/>
        <path d="M517.015,394.5L517.015,468L492.515,468L492.515,394.5L472.39,394.5L472.39,373.75L537.14,373.75L537.14,394.5L517.015,394.5Z" style="fill:rgb(255,148,20);fill-rule:nonzero;"/>
        <path d="M562.64,435.625C562.64,437.792 563.036,439.771 563.828,441.562C564.619,443.354 565.661,444.917 566.953,446.25C568.244,447.583 569.786,448.625 571.578,449.375C573.369,450.125 575.265,450.5 577.265,450.5C579.265,450.5 581.161,450.125 582.953,449.375C584.744,448.625 586.286,447.583 587.578,446.25C588.869,444.917 589.911,443.354 590.703,441.562C591.494,439.771 591.89,437.833 591.89,435.75C591.89,433.75 591.494,431.854 590.703,430.062C589.911,428.271 588.869,426.708 587.578,425.375C586.286,424.042 584.744,423 582.953,422.25C581.161,421.5 579.265,421.125 577.265,421.125C575.265,421.125 573.369,421.5 571.578,422.25C569.786,423 568.244,424.042 566.953,425.375C565.661,426.708 564.619,428.25 563.828,430C563.036,431.75 562.64,433.625 562.64,435.625ZM538.765,435.375C538.765,430.625 539.723,426.187 541.64,422.062C543.557,417.937 546.223,414.354 549.64,411.312C553.057,408.271 557.119,405.875 561.828,404.125C566.536,402.375 571.682,401.5 577.265,401.5C582.765,401.5 587.869,402.354 592.578,404.062C597.286,405.771 601.369,408.146 604.828,411.187C608.286,414.229 610.973,417.854 612.89,422.062C614.807,426.271 615.765,430.917 615.765,436C615.765,441.083 614.786,445.729 612.828,449.937C610.869,454.146 608.182,457.771 604.765,460.812C601.348,463.854 597.244,466.208 592.453,467.875C587.661,469.542 582.473,470.375 576.89,470.375C571.39,470.375 566.307,469.542 561.64,467.875C556.973,466.208 552.953,463.833 549.578,460.75C546.203,457.667 543.557,453.979 541.64,449.687C539.723,445.396 538.765,440.625 538.765,435.375Z" style="fill:rgb(255,148,20);fill-rule:nonzero;"/>
        <path d="M650.14,435.625C650.14,437.792 650.536,439.771 651.328,441.562C652.119,443.354 653.161,444.917 654.453,446.25C655.744,447.583 657.286,448.625 659.078,449.375C660.869,450.125 662.765,450.5 664.765,450.5C666.765,450.5 668.661,450.125 670.453,449.375C672.244,448.625 673.786,447.583 675.078,446.25C676.369,444.917 677.411,443.354 678.203,441.562C678.994,439.771 679.39,437.833 679.39,435.75C679.39,433.75 678.994,431.854 678.203,430.062C677.411,428.271 676.369,426.708 675.078,425.375C673.786,424.042 672.244,423 670.453,422.25C668.661,421.5 666.765,421.125 664.765,421.125C662.765,421.125 660.869,421.5 659.078,422.25C657.286,423 655.744,424.042 654.453,425.375C653.161,426.708 652.119,428.25 651.328,430C650.536,431.75 650.14,433.625 650.14,435.625ZM626.265,435.375C626.265,430.625 627.223,426.187 629.14,422.062C631.057,417.937 633.723,414.354 637.14,411.312C640.557,408.271 644.619,405.875 649.328,404.125C654.036,402.375 659.182,401.5 664.765,401.5C670.265,401.5 675.369,402.354 680.078,404.062C684.786,405.771 688.869,408.146 692.328,411.187C695.786,414.229 698.473,417.854 700.39,422.062C702.307,426.271 703.265,430.917 703.265,436C703.265,441.083 702.286,445.729 700.328,449.937C698.369,454.146 695.682,457.771 692.265,460.812C688.848,463.854 684.744,466.208 679.953,467.875C675.161,469.542 669.973,470.375 664.39,470.375C658.89,470.375 653.807,469.542 649.14,467.875C644.473,466.208 640.453,463.833 637.078,460.75C633.703,457.667 631.057,453.979 629.14,449.687C627.223,445.396 626.265,440.625 626.265,435.375Z" style="fill:rgb(255,148,20);fill-rule:nonzero;"/>
        <rect x="716.265" y="364.25" width="22.625" height="103.75" style="fill:rgb(255,148,20);fill-rule:nonzero;"/>
        <path d="M805.515,436.125C805.515,434.125 805.14,432.229 804.39,430.437C803.64,428.646 802.598,427.083 801.265,425.75C799.932,424.417 798.39,423.354 796.64,422.562C794.89,421.771 792.973,421.375 790.89,421.375C788.89,421.375 787.015,421.75 785.265,422.5C783.515,423.25 781.994,424.292 780.703,425.625C779.411,426.958 778.369,428.521 777.578,430.312C776.786,432.104 776.39,434 776.39,436C776.39,438 776.765,439.875 777.515,441.625C778.265,443.375 779.307,444.896 780.64,446.187C781.973,447.479 783.536,448.521 785.328,449.312C787.119,450.104 789.015,450.5 791.015,450.5C793.015,450.5 794.89,450.125 796.64,449.375C798.39,448.625 799.911,447.583 801.203,446.25C802.494,444.917 803.536,443.375 804.328,441.625C805.119,439.875 805.515,438.042 805.515,436.125ZM777.015,364.25L777.015,410.25C782.348,404.667 789.015,401.875 797.015,401.875C801.765,401.875 806.119,402.771 810.078,404.562C814.036,406.354 817.411,408.771 820.203,411.812C822.994,414.854 825.182,418.437 826.765,422.562C828.348,426.687 829.14,431.083 829.14,435.75C829.14,440.5 828.328,444.958 826.703,449.125C825.078,453.292 822.807,456.917 819.89,460C816.973,463.083 813.536,465.521 809.578,467.312C805.619,469.104 801.348,470 796.765,470C788.432,470 781.848,466.958 777.015,460.875L777.015,468L754.39,468L754.39,364.25L777.015,364.25Z" style="fill:rgb(255,148,20);fill-rule:nonzero;"/>
        <path d="M863.015,435.75C863.015,437.833 863.39,439.771 864.14,441.562C864.89,443.354 865.911,444.917 867.203,446.25C868.494,447.583 870.036,448.625 871.828,449.375C873.619,450.125 875.557,450.5 877.64,450.5C879.64,450.5 881.536,450.125 883.328,449.375C885.119,448.625 886.661,447.583 887.953,446.25C889.244,444.917 890.286,443.375 891.078,441.625C891.869,439.875 892.265,438 892.265,436C892.265,434 891.869,432.104 891.078,430.312C890.286,428.521 889.244,426.958 887.953,425.625C886.661,424.292 885.119,423.25 883.328,422.5C881.536,421.75 879.64,421.375 877.64,421.375C875.557,421.375 873.619,421.75 871.828,422.5C870.036,423.25 868.494,424.292 867.203,425.625C865.911,426.958 864.89,428.479 864.14,430.187C863.39,431.896 863.015,433.75 863.015,435.75ZM891.515,403.875L914.265,403.875L914.265,468L891.515,468L891.515,460.875C886.682,466.958 880.14,470 871.89,470C867.223,470 862.932,469.146 859.015,467.437C855.098,465.729 851.682,463.333 848.765,460.25C845.848,457.167 843.578,453.542 841.953,449.375C840.328,445.208 839.515,440.667 839.515,435.75C839.515,431.167 840.307,426.812 841.89,422.687C843.473,418.562 845.682,414.958 848.515,411.875C851.348,408.792 854.723,406.354 858.64,404.562C862.557,402.771 866.89,401.875 871.64,401.875C879.64,401.875 886.265,404.667 891.515,410.25L891.515,403.875Z" style="fill:rgb(255,148,20);fill-rule:nonzero;"/>
        <path d="M929.64,403.875L952.265,403.875L952.265,414.375C954.682,410.542 957.64,407.604 961.14,405.562C964.64,403.521 968.723,402.5 973.39,402.5L975.328,402.5C976.036,402.5 976.848,402.583 977.765,402.75L977.765,424.375C974.765,422.875 971.515,422.125 968.015,422.125C962.765,422.125 958.828,423.687 956.203,426.812C953.578,429.937 952.265,434.5 952.265,440.5L952.265,468L929.64,468L929.64,403.875Z" style="fill:rgb(255,148,20);fill-rule:nonzero;"/>
    </g>
    <defs>
        <radialGradient id="_Radial1" cx="0" cy="0" r="1" gradientUnits="userSpaceOnUse" gradientTransform="matrix(1574.88,-779.72,-779.72,-1574.88,0,772)"><stop offset="0" style="stop-color:rgb(48,35,174);stop-opacity:1"/><stop offset="1" style="stop-color:rgb(200,109,215);stop-opacity:1"/></radialGradient>
    </defs>
</svg>
